<svg preserveAspectRatio="xMidYMid meet" data-bbox="0.928 -0.001 553.849 491.001" xmlns="http://www.w3.org/2000/svg" viewBox="0 0 555 491" height="491" width="555" data-type="ugc" role="presentation" aria-hidden="true" aria-labelledby="svgcid-i0wjpt-58qkbu"><title id="svgcid-i0wjpt-58qkbu"></title>
    <g>
        <path fill="#E1E5F2" d="M78.166 429.672c-3.603 0-7.405-.875-10.356-2.579L5.393 391.056c-5.395-3.113-5.984-7.866-1.316-10.563l46.187-26.665-2.625-1.515c-5.392-3.112-5.984-7.868-1.313-10.565l38.248-22.079c2.114-1.223 4.96-1.821 7.94-1.821 3.603 0 7.405.873 10.357 2.578l12.428 7.175 38.966 22.499 23.451 13.538c5.395 3.113 5.986 7.868 1.314 10.565l-92.924 53.649c-2.113 1.221-4.96 1.82-7.94 1.82z"></path>
        <path fill="#E1E5F2" d="M352.713 491c-3.584 0-7.365-.87-10.3-2.565l-12.361-7.136-38.755-22.373-23.323-13.468c-5.363-3.096-5.95-7.824-1.307-10.505l23.544-13.593-25.476-14.708c-4.67-2.695-4.079-7.451 1.312-10.563l23.453-13.54 38.966-22.498 12.431-7.177c2.949-1.702 6.751-2.575 10.354-2.575 2.98 0 5.826.598 7.942 1.818l38.248 22.082c4.669 2.697 4.077 7.45-1.315 10.563l-2.625 1.516 46.185 26.664c3.214 1.857 3.936 4.687 2.318 7.286 2.735 2.878 2.373 6.323-1.338 8.468l-45.932 26.519 2.61 1.506c5.361 3.096 5.951 7.824 1.305 10.506l-38.039 21.965c-2.103 1.212-4.933 1.808-7.897 1.808z"></path>
        <path fill="#E1E5F2" d="M262.836 376.17c-3.448 0-7.086-.835-9.912-2.465l-127.998-73.901c-5.159-2.98-5.725-7.529-1.258-10.11l167.38-96.636c2.023-1.167 4.745-1.74 7.6-1.74 3.446 0 7.086.836 9.909 2.466l127.999 73.9c5.16 2.981 5.725 7.529 1.257 10.109l-167.38 96.636c-2.023 1.168-4.745 1.741-7.597 1.741z"></path>
        <path fill="#E1E5F2" d="M172.353 452.998c-21.116 0-38.231-9.101-38.231-20.335 0-.204.047-.405.058-.61.61-10.946 17.446-19.726 38.173-19.726 20.731 0 37.568 8.78 38.178 19.726.01.205.058.406.058.61 0 11.234-17.118 20.335-38.236 20.335z"></path>
        <path fill="#E1E5F2" d="M462.017 349.397c-21.114 0-38.23-9.103-38.23-20.334 0-.207.046-.407.056-.61.612-10.948 17.447-19.726 38.174-19.726 20.731 0 37.565 8.778 38.178 19.726.01.203.057.403.057.61 0 11.231-17.117 20.334-38.235 20.334z"></path>
        <path fill="#E1E5F2" d="M516.543 306.344c-21.114 0-38.233-9.102-38.233-20.336 0-.205.049-.405.06-.608.61-10.95 17.444-19.728 38.173-19.728 20.729 0 37.566 8.778 38.178 19.728.011.203.056.403.056.608 0 11.234-17.116 20.336-38.234 20.336z"></path>
        <path fill="#E1E5F2" d="M387.884 230.081c-19.374 0-35.081-8.352-35.081-18.66 0-.191.041-.373.054-.559.558-10.048 16.007-18.102 35.027-18.102 19.025 0 34.474 8.054 35.034 18.102.011.186.052.368.052.559 0 10.308-15.705 18.66-35.086 18.66z"></path>
        <path fill="#696CFF" d="M500.215 165.956c10.052-.67 10.257-36.585 10.257-36.585l-1.559-2.176s-5.93-2.554-10.619 8.414c-2.503 5.856-7.31 12.313-7.887 20.03-.228 3.047.97 5.765 2.182 7.85 1.469 2.525 3.233 2.761 7.626 2.467z"></path>
        <path fill="#6D3439" d="M495.663 271.879s-2.18 2.37-5.093 5.208c-2.693 2.627-3.526 3.382-6.027 5.823-1.46 1.425-.258 2.734 2.526 2.627 2.444-.094 7.983-1.285 11.084-2.4 2.201-.79 6.236-3.02 8.298-4.325 2.06-1.303 2.462-3.115 2.462-3.115v-4.38l-13.25.562z"></path>
        <path fill="#6D3439" d="M530.294 277.335s-.505 4.491-.815 10.133c-.311 5.641.488 10.623 2.211 11.244 1.725.62 6.635.542 9.429-7.291 2.795-7.835 1.128-15.432 1.128-15.432l-11.953 1.346z"></path>
        <path fill="#263D58" d="M535.88 200.14c1.03-16.077-7.831-24.526-7.831-24.526.706-5.417-24.421 2.163-24.421 2.163s-5.382 29.125-7.655 44.457c-2.583 17.429-1.454 48.541-1.454 48.541s.327 3.789 6.82 3.764c4.98-.018 9.09-4.072 9.09-4.072l.515-36.323 5.771-28.647s.986 26.732 4.645 34.447c6.689 14.108 6.689 38.978 6.689 38.978s8.427 3.008 14.198.122c5.77-2.885 4.637-6.108 4.637-6.108s-1.456-19.283-8.875-35.979c-.621-12.673-2.6-29.435-2.129-36.817z"></path>
        <path fill="#7D89FF" d="M500.106 185.81c5.071 5.351 13.479 8.22 20.681 7.484 5.155-.526 9.705-2.809 13.838-5.769-.759-5.363-1.299-10.882-.896-13.984 1.431-11 3.572-28.777 3.183-31.687-.647-4.867-11.682-10.14-11.682-10.14s-7.827-6.058-15.937-2.868c0 0-8.674 7.005-9.708 16.904-.511 4.915.988 21.474 1.034 32.327.006 1.834-.209 4.672-.513 7.733z"></path>
        <path fill="#696CFF" d="M509.699 134.49s-2.356 3.305-3.082 6.782c-1.404 6.722 1.85 12.146 1.85 12.146s3.369-3.912 6.687-6.923c3.983-3.616 6.093-6.296 6.093-6.296l-11.548-5.709z"></path>
        <path fill="#DCDCF4" d="M509.564 135.609s-1.394 3.703-1.739 7.736c-.344 4.033.871 6.805.871 6.805s6.987-6.602 9.295-8.877c1.284-1.268-2.426-2.418-5.124-3.599-2.146-.939-3.303-2.065-3.303-2.065z"></path>
        <path fill="#B3B1EF" d="m512.388 128.542-.523 7.626s1.003 1.505 3.578 3.688c2.756-.861 9.151-6.795 9.151-6.795l-2.13-11.837-10.076 7.318z"></path>
        <path fill="#C8C7FB" d="M523.644 108.209c-2.867-3.654-11.111-6.734-16.481 1.215-5.634 8.335-.312 21.962 4.623 21.167 2.763-.446 8.983-2.964 11.709-7.413 3.067-5.009 2.377-12.129.149-14.969z"></path>
        <path fill="#ffffff" d="m512.644 130.625.223 7.049-5.02 2.051s-.12-7.473 4.797-9.1z"></path>
        <path fill="#ffffff" d="M523.84 128.874s-.912 3.581-4.515 5.616c-1.845 1.043-6.457 3.183-6.457 3.183l1.89 5.672s11.457-5.523 13.171-8.855c.689-1.344-1.228-4.526-4.089-5.616z"></path>
        <path fill="#ffffff" d="m505.331 157.25-.637 9.599v.011l6.095 3.524.639-9.609-6.097-3.525z"></path>
        <path fill="#3326C4" d="m505.73 158.146-.07 1.078 5.181 2.997.07-1.08-5.181-2.995z"></path>
        <path fill="#E0E9ED" d="m507.55 161.243-.453 6.302 3.138 1.81.453-6.303-3.138-1.809z"></path>
        <path fill="#C8C7FB" d="M518.935 158.295c2.549 1.082 3.792 1.498 6.154 2.459l2.364.96v7.113l-10.909-2.871 2.391-7.661z"></path>
        <path fill="#696CFF" d="M498.172 152.311s5.916.443 12.818 2.588c5.556 1.725 8.741 4.531 8.741 4.531s-1.094 4.023-2.406 5.575c-1.313 1.549-19.928 2.68-23.052.707-3.121-1.975-2.839-11.994 3.899-13.401z"></path>
        <path fill="#ffffff" d="M516.334 157.168s-2.306.759-2.47 3.867c-.161 3.107.315 4.921.315 4.921l4.05-.277s1.017-3.667 1.501-5.016c.48-1.348.894-1.636.894-1.636l-4.29-1.859z"></path>
        <path fill="#696CFF" d="M529.915 170.835s-17.68-12.644-22.684-15.442c-5.003-2.801-7.334-3.452-7.334-3.452s-1.642 1.706-1.725 4.622c-.083 2.915 2.439 6.956 5.915 10.477 3.546 3.586 13.141 10.66 17.91 11.303 4.021.544 7.918-7.508 7.918-7.508z"></path>
        <path fill="#696CFF" d="M522.512 178.503c3.701.412 8.613-1.148 11.906-7.25 3.063-5.671 4.294-10.356 4.714-16.172.693-9.668.579-14.686-4.081-16.605-2.55.687-6.764 4.72-8.716 12.797-1.239 5.123-6.224 20.142-6.224 20.142-1.179 3.323-1.489 6.654 2.401 7.088z"></path>
        <path fill="#ffffff" d="M506.042 154.059s-2.538.215-3.86.78c-2.896 1.23-3.698 3.456-3.698 3.456s-1.965-2.677-.288-5.196c1.299-1.952 3.45-1.967 4.294-1.712 1.847.554 3.552 2.672 3.552 2.672z"></path>
        <path fill="#263D58" d="M523.492 126.936s-1.466-.908-1.495-3.458c.711-1.047 1.882-3.254.686-5.469-.686-1.276-3.359.546-3.359.546s-4.223-5.272-7.46-6.548c-2.307 3.266-4.18 5.051-6.629 5.711-2.451.659-5.755-1.715-5.755-1.715s3.792.031 3.79-1.094c-1.858-.836-5.752-3.974-5.752-3.974s3.545.395 5.946-5.493c1.218-2.987 3.632-7.3 11.688-6.735 4.346.304 7.614 5.63 7.614 5.63s1.826-1.553 4.687 2.094c3.051 3.89 1.642 9.938-.666 13.218-2.306 3.281-3.295 7.287-3.295 7.287z"></path>
        <path fill="#A5B2F8" d="M368.309 70.162s-2.819 5.487-5.363 12.052a44.793 44.793 0 0 0-2.544 9.37c-.778 4.987-.877 7.928-.877 7.928l5.293 3.595s2.753-5.21 5.105-14.047c1.164-4.374 7.82-14.27 7.82-14.27l-9.434-4.628z"></path>
        <path fill="#F68C19" d="M364.508 72.115s2.395 3.89 6.762 5.518c4.352 1.622 7.138 2.645 7.138 2.645s3.684-5.932 7.773-17.072c2.31-6.294-5.903-9.734-10.384-6.091-5.874 4.778-11.289 15-11.289 15z"></path>
        <path fill="#6D3439" d="M368.506 201.33c2.865-2.793 5.01-5.124 5.01-5.124l13.039-.554v4.31s-.396 1.781-2.425 3.066c-2.027 1.282-5.998 3.477-8.163 4.254-3.051 1.097-8.501 2.267-10.907 2.36-2.738.106-3.919-1.183-2.484-2.585 2.461-2.399 3.28-3.144 5.93-5.727z"></path>
        <path fill="#6D3439" d="m398.781 203.406 11.761-1.324s1.638 7.475-1.109 15.182c-2.751 7.707-7.583 7.783-9.279 7.173-1.696-.61-2.482-5.512-2.176-11.064.307-5.549.803-9.967.803-9.967z"></path>
        <path fill="#263D58" d="M383.428 101.003c-5.415 1.61-10.414 3.556-10.414 3.556s-3.427 25.308-4.478 40.523c-1.194 17.294 2.701 51.393 2.701 51.393s.61 3.692 6.977 3.167c4.883-.402 8.6-4.694 8.6-4.694l-2.679-39.334 5.591-24.386c-.821-13.858-5.195-16.385-6.298-30.225z"></path>
        <path fill="#263D58" d="M415.104 199.077s-3.336-25.178-10.635-41.601c-.608-12.472 4.045-26.767 1.208-39.127-3.548-15.449-9.105-15.023-9.105-15.023.339-2.595-5.355-2.155-11.285-1.024.012 10.346.078 20.692.01 31.036l.122-.61s.838 20.551 4.015 31.743c4.194 14.779 7.138 40.497 7.138 40.497s8.292 2.958 13.969.12c5.678-2.838 4.563-6.011 4.563-6.011z"></path>
        <path fill="#F7AA20" d="M381.45 59.8c2.013-1.243 3.837-1.775 3.837-1.775l10.917 2.528s10.555 3.22 13.051 11.436c.182 2.58-.12 8.59-.534 11.29-.382.239-2.862-.16-3.044.367-3.318 9.661-1.405 22.204-.71 31.913-16.387 7.189-28.696 3.57-33.234-1.066 0-17.039-5.38-40.955 9.717-54.693z"></path>
        <path fill="#F68C19" d="M383.353 59.32s-.488.862-2.531 5.77c-2.046 4.909-3.107 7.771.69 9.281 3.802 1.51 7.302-2.36 11.488-6.418 4.191-4.058 4.588-6.894 4.588-6.894s-2.902-2.149-6.499-3.034c-3.597-.883-7.736 1.295-7.736 1.295z"></path>
        <path fill="#A5B2F8" d="m384.624 58.505 9.914-7.2 1.665 9.247s-2.064 3.562-4.552 6.367c-1.864 2.097-7.699 6.641-10.042 5.038-2.731-1.865 2.507-10.478 2.507-10.478l.508-2.974z"></path>
        <path fill="#C8C7FB" d="M395.701 38.502c2.191 2.794 2.873 9.795-.147 14.724-2.68 4.38-8.8 6.857-11.52 7.296-4.853.781-10.092-12.626-4.549-20.827 5.285-7.82 13.395-4.79 16.216-1.193z"></path>
        <path fill="#263D58" d="M391.037 32.565c2.788.455 4.896 2.16 6.385 4.238 4.945 1.055 4.441 8.177 3.214 10.87-2.372 5.195-5.082 5.553-5.082 5.553s.707-2.836.083-4.07c-.536-1.053-2.222-1.235-2.786.639-.627.192-1.376.134-1.376.134l.569-3.746s-2.856 1.448-6.093-.424c-3.004-1.737-5.926-.726-6.971.261-.637-1.595-.577-2.52-.49-3.82-1.926-1.349-3.754-2.559-3.475-3.475 1.477.434 3.173.47 4.602-.434-1.214-.954-1.81-1.823-2.511-2.865 3.378.434 10.677-3.392 13.931-2.86z"></path>
        <path fill="#A5B2F8" d="M357.233 98.36s-.916 2.352.373 5.076c.891 1.882 3.233 4.552 5.684 4.411 2.802-.159 1.307-2.525-.927-4.749-2.234-2.223-5.13-4.738-5.13-4.738z"></path>
        <path fill="#8FA0CB" d="m165.347 266.39-17.748 10.246v-15.882l17.748-10.247v15.883z"></path>
        <path fill="#A4A9D7" d="M144.099 258.735v15.883l3.5 2.018v-15.882l-3.5-2.019z"></path>
        <path fill="#8FA0CB" d="m285.761 197.505-17.751 10.247v-15.883l17.751-10.247v15.883z"></path>
        <path fill="#A4A9D7" d="M264.515 189.85v15.883l3.496 2.019v-15.883l-3.496-2.019z"></path>
        <path fill="#8FA0CB" d="m296.327 29.874-8.851-5.032-.008.044c-1.158-.652-2.641-.627-4.273.316l-163.436 94.361c-3.642 2.101-6.619 7.793-6.619 12.648v130.536c0 2.768.987 4.648 2.495 5.399l-.046.029 8.669 4.912-.549-7.616 159.486-92.079c3.64-2.104 6.619-7.796 6.619-12.65V36.586l6.513-6.712z"></path>
        <path fill="#DCDCF4" d="m292.151 178.482-163.434 94.359c-3.642 2.103-6.621-.149-6.621-5.004V137.301c0-4.854 2.979-10.547 6.621-12.65l163.434-94.359c3.642-2.101 6.623.151 6.623 5.006v130.534c0 4.854-2.981 10.547-6.623 12.65z"></path>
        <path fill="#263D58" d="m293.049 163.59-165.23 95.395V132.596l165.23-95.393V163.59z"></path>
        <path fill="#ffffff" d="m228.025 211.226-21.038 12.146c-1.09.629-1.979-.046-1.979-1.496 0-1.452.889-3.156 1.979-3.783l21.038-12.147c1.09-.629 1.979.045 1.979 1.497 0 1.452-.889 3.155-1.979 3.783z"></path>
        <path fill="#878ECA" d="m287.076 46.715-153.512 88.594v114.327l153.512-88.594V46.715z"></path>
        <path fill="#8FA0CB" d="m430.517 260.17-10.837-.478v.991l-113.902-65.759c-4.865-2.809-12.295-3.117-16.51-.685l-149.83 86.505v-1.777h-10.836v10.839h.016c.133 1.787 1.464 3.64 3.99 5.098l120.71 69.692c4.867 2.81 12.294 3.117 16.509.684l157.848-91.132c1.691-.978 2.655-2.259 2.842-3.62V260.17z"></path>
        <path fill="#DCDCF4" d="m427.674 264.183-157.847 91.132c-4.216 2.434-11.643 2.124-16.51-.685l-120.71-69.691c-4.867-2.809-5.4-7.099-1.187-9.533l157.847-91.132c4.216-2.433 11.645-2.125 16.51.684l120.712 69.692c4.865 2.809 5.398 7.1 1.185 9.533z"></path>
        <path fill="#C3C2E5" d="m377.959 235.997-156.43 90.315-79.374-45.826 156.429-90.313 79.375 45.824z"></path>
        <path fill="#C3C2E5" d="m369.178 289.584-55.353 31.958-29.615-17.097 55.354-31.958 29.614 17.097z"></path>
        <path fill="#8FA0CB" d="m148.995 280.304 10.918-6.305 7.854 4.534-10.921 6.304-7.851-4.533z"></path>
        <path fill="#8FA0CB" d="m160.408 286.894 10.919-6.303 7.851 4.532-10.917 6.304-7.853-4.533z"></path>
        <path fill="#8FA0CB" d="m171.824 293.483 14.737-8.509 7.851 4.534-14.739 8.509-7.849-4.534z"></path>
        <path fill="#8FA0CB" d="m312.996 211.977 7.119-4.112 19.265 11.124-7.12 4.112-19.264-11.124z"></path>
        <path fill="#8FA0CB" d="m183.235 300.073 14.74-8.509 7.851 4.534-14.737 8.507-7.854-4.532z"></path>
        <path fill="#8FA0CB" d="m194.65 306.663 19.484-11.25 7.853 4.532-19.486 11.252-7.851-4.534z"></path>
        <path fill="#8FA0CB" d="m314.081 237.708 29.092-16.797 7.851 4.534-29.091 16.797-7.852-4.534z"></path>
        <path fill="#8FA0CB" d="m206.061 313.251 10.921-6.303 7.849 4.534-10.917 6.302-7.853-4.533z"></path>
        <path fill="#8FA0CB" d="m162.648 272.421 10.919-6.304 7.851 4.534-10.916 6.304-7.854-4.534z"></path>
        <path fill="#8FA0CB" d="m174.063 279.011 10.917-6.305 7.853 4.534-10.921 6.305-7.849-4.534z"></path>
        <path fill="#8FA0CB" d="m176.442 264.458 10.919-6.305 7.852 4.534-10.917 6.305-7.854-4.534z"></path>
        <path fill="#8FA0CB" d="m187.858 271.046 10.919-6.303 7.851 4.532-10.921 6.304-7.849-4.533z"></path>
        <path fill="#8FA0CB" d="m190.097 256.575 10.917-6.304 7.854 4.534-10.921 6.302-7.85-4.532z"></path>
        <path fill="#8FA0CB" d="m201.508 263.163 10.919-6.304 7.852 4.533-10.917 6.305-7.854-4.534z"></path>
        <path fill="#8FA0CB" d="m203.855 248.631 10.917-6.305 7.853 4.534-10.919 6.304-7.851-4.533z"></path>
        <path fill="#8FA0CB" d="m215.266 255.221 10.921-6.303 7.851 4.532-10.919 6.304-7.853-4.533z"></path>
        <path fill="#8FA0CB" d="m217.505 240.748 10.921-6.304 7.851 4.534-10.919 6.304-7.853-4.534z"></path>
        <path fill="#8FA0CB" d="m228.921 247.338 10.917-6.304 7.854 4.534-10.919 6.304-7.852-4.534z"></path>
        <path fill="#8FA0CB" d="m231.299 232.785 10.921-6.304 7.852 4.534-10.919 6.304-7.854-4.534z"></path>
        <path fill="#8FA0CB" d="m242.714 239.375 10.917-6.305 7.854 4.534-10.919 6.305-7.852-4.534z"></path>
        <path fill="#8FA0CB" d="m189.648 283.191 10.919-6.304 7.851 4.534-10.916 6.304-7.854-4.534z"></path>
        <path fill="#8FA0CB" d="m201.061 289.779 10.919-6.303 7.851 4.534-10.918 6.302-7.852-4.533z"></path>
        <path fill="#8FA0CB" d="m203.445 275.226 10.917-6.303 7.853 4.532-10.919 6.305-7.851-4.534z"></path>
        <path fill="#8FA0CB" d="m214.855 281.816 10.921-6.305 7.85 4.534-10.919 6.304-7.852-4.533z"></path>
        <path fill="#8FA0CB" d="m217.096 267.343 10.921-6.302 7.849 4.532-10.917 6.304-7.853-4.534z"></path>
        <path fill="#8FA0CB" d="m228.511 273.933 10.917-6.305 7.854 4.534-10.919 6.305-7.852-4.534z"></path>
        <path fill="#8FA0CB" d="m230.854 259.401 10.917-6.302 7.854 4.531-10.919 6.305-7.852-4.534z"></path>
        <path fill="#8FA0CB" d="m242.266 265.991 10.919-6.303 7.851 4.532-10.917 6.304-7.853-4.533z"></path>
        <path fill="#8FA0CB" d="m244.506 251.518 10.921-6.304 7.85 4.534-10.917 6.304-7.854-4.534z"></path>
        <path fill="#8FA0CB" d="m255.921 258.108 10.917-6.302 7.854 4.531-10.919 6.305-7.852-4.534z"></path>
        <path fill="#8FA0CB" d="m258.302 243.555 10.917-6.305 7.851 4.534-10.917 6.305-7.851-4.534z"></path>
        <path fill="#8FA0CB" d="m269.715 250.143 10.919-6.303 7.851 4.534-10.919 6.303-7.851-4.534z"></path>
        <path fill="#8FA0CB" d="m272.001 235.646 10.919-6.305 7.851 4.534-10.919 6.302-7.851-4.531z"></path>
        <path fill="#8FA0CB" d="m283.415 242.235 10.918-6.304 7.852 4.534-10.917 6.302-7.853-4.532z"></path>
        <path fill="#8FA0CB" d="m217.907 293.235 10.917-6.304 7.852 4.533-10.917 6.305-7.852-4.534z"></path>
        <path fill="#8FA0CB" d="m231.701 285.272 10.917-6.305 7.853 4.534-10.919 6.305-7.851-4.534z"></path>
        <path fill="#8FA0CB" d="m245.352 277.389 10.921-6.304 7.852 4.534-10.921 6.302-7.852-4.532z"></path>
        <path fill="#8FA0CB" d="m259.11 269.445 10.917-6.305 7.853 4.534-10.919 6.305-7.851-4.534z"></path>
        <path fill="#8FA0CB" d="m272.762 261.562 10.921-6.304 7.851 4.534-10.919 6.304-7.853-4.534z"></path>
        <path fill="#8FA0CB" d="m286.557 253.599 10.919-6.304 7.852 4.533-10.919 6.305-7.852-4.534z"></path>
        <path fill="#8FA0CB" d="m300.256 245.688 10.921-6.303 7.852 4.534-10.919 6.305-7.854-4.536z"></path>
        <path fill="#8FA0CB" d="m285.794 227.68 10.919-6.302 7.852 4.532-10.917 6.304-7.854-4.534z"></path>
        <path fill="#8FA0CB" d="m297.209 234.27 10.917-6.304 7.854 4.534-10.919 6.304-7.852-4.534z"></path>
        <path fill="#8FA0CB" d="m299.449 219.798 10.917-6.302 7.854 4.531-10.919 6.305-7.852-4.534z"></path>
        <path fill="#8FA0CB" d="m310.861 226.388 10.921-6.305 7.85 4.534-10.917 6.305-7.854-4.534z"></path>
        <path fill="#8FA0CB" d="m244.954 224.902 10.917-6.304 7.854 4.534-10.919 6.304-7.852-4.534z"></path>
        <path fill="#8FA0CB" d="m256.369 231.492 10.919-6.304 7.851 4.534-10.919 6.304-7.851-4.534z"></path>
        <path fill="#8FA0CB" d="m258.922 216.838 10.917-6.305 7.854 4.534-10.919 6.305-7.852-4.534z"></path>
        <path fill="#8FA0CB" d="m270.335 223.428 10.919-6.305 7.852 4.534-10.919 6.304-7.852-4.533z"></path>
        <path fill="#8FA0CB" d="m272.576 208.956 10.919-6.305 7.851 4.534-10.919 6.305-7.851-4.534z"></path>
        <path fill="#8FA0CB" d="m283.989 215.545 10.917-6.304 7.854 4.533-10.919 6.305-7.852-4.534z"></path>
        <path fill="#8FA0CB" d="m286.37 200.99 10.919-6.302 7.851 4.534-10.919 6.302-7.851-4.534z"></path>
        <path fill="#8FA0CB" d="m297.783 207.58 10.919-6.304 7.851 4.534-10.919 6.304-7.851-4.534z"></path>
        <path fill="#8FA0CB" d="m219.716 305.37 10.919-6.304 7.851 4.531-10.919 6.305-7.851-4.532z"></path>
        <path fill="#8FA0CB" d="m233.51 297.405 10.919-6.305 7.851 4.534-10.917 6.304-7.853-4.533z"></path>
        <path fill="#8FA0CB" d="m305.069 256.089 10.919-6.304 7.854 4.533-10.921 6.305-7.852-4.534z"></path>
        <path fill="#8FA0CB" d="m318.723 248.207 10.919-6.305 7.852 4.534-10.917 6.305-7.854-4.534z"></path>
        <path fill="#8FA0CB" d="m332.519 240.244 10.916-6.305 7.854 4.534-10.919 6.303-7.851-4.532z"></path>
        <path fill="#8FA0CB" d="m346.025 232.444 8.331-4.809 7.85 4.533-8.327 4.809-7.854-4.533z"></path>
        <path fill="#8FA0CB" d="m247.304 289.442 55.122-31.826 7.852 4.534-55.12 31.823-7.854-4.531z"></path>
        <path fill="#ffffff" d="m154.724 305.389-15.53-8.964v-5l15.53 8.965v4.999z"></path>
        <path fill="#ffffff" d="m172.691 315.778-15.527-8.964v-5.002l15.527 8.967v4.999z"></path>
        <path fill="#959BD1" d="m240.249 81.666-2.838-1.625-.014-.009-.043-.025-.009.009c-.256-.162-.587-.17-.962.045l-96.811 55.896c-.799.459-1.444 1.696-1.444 2.761v100.8c0 .494.149.846.376 1.055l-.006.014.029.017.101.057 2.983 1.721 1.826-3.4-.734-.18 93.68-54.088c.799-.459 1.446-1.696 1.446-2.759V82.862l.97.8 1.45-1.996z"></path>
        <path fill="#B0B5DD" d="M240.803 183.655c0 1.063-.645 2.3-1.443 2.761l-96.814 55.894c-.797.461-1.444-.027-1.444-1.093V140.418c0-1.065.647-2.3 1.444-2.761l96.814-55.896c.798-.461 1.443.03 1.443 1.092v100.802z"></path>
        <path fill="#ffffff" d="m237.969 182.803-94.036 54.293v-89.695l94.036-54.29v89.692z"></path>
        <path fill="#2D6FEF" d="m238.216 89.808-3.81 2.198v-5.08l3.81-2.198v5.08z"></path>
        <path fill="#6B73BC" d="m232.278 93.235-3.81 2.198v-5.077l3.81-2.2v5.079z"></path>
        <path fill="#2D6FEF" d="M170.882 142.677c.226-.43.339-.856.339-1.285 0-.426-.113-.717-.339-.877-.223-.159-.496-.142-.817.042l-1.88 1.088v3.038l1.88-1.086c.321-.186.594-.494.817-.92zm.358-5.006c.372 0 .695.1.97.3.275.205.49.501.654.898.159.397.24.873.24 1.435a6.53 6.53 0 0 1-.22 1.665 7.963 7.963 0 0 1-.62 1.624c.256.219.459.519.604.906.149.383.223.852.223 1.4v4.032l-1.897 1.094v-4.029c0-.429-.109-.726-.322-.904-.217-.174-.486-.17-.807.016l-1.88 1.086v5.568l-1.928 1.111v-13.645l1.911-1.103 1.885-1.085c.42-.244.819-.369 1.187-.369z"></path>
        <path fill="#2D6FEF" d="m176.504 145.43 4.222-2.437v2.53l-5.362 3.092-.757.438v-13.647l1.885-1.085 4.234-2.447v2.531l-4.222 2.435v3.04l3.411-1.969v2.511l-3.411 1.967v3.041z"></path>
        <path fill="#2D6FEF" d="M186.657 134.339c.366.002.686.108.961.315.273.209.493.513.648.91.155.399.233.879.233 1.442 0 .56-.08 1.131-.242 1.712a8.179 8.179 0 0 1-.655 1.661 7.127 7.127 0 0 1-.964 1.419 4.805 4.805 0 0 1-1.191.999l-3.424 1.975v-2.527l3.424-1.976c.32-.186.593-.488.819-.912.221-.422.337-.848.337-1.276 0-.426-.116-.724-.337-.885-.226-.164-.499-.153-.819.033l-.356.205c-.42.242-.819.368-1.192.374a1.48 1.48 0 0 1-.966-.3c-.277-.207-.492-.511-.647-.91-.157-.397-.234-.877-.234-1.442 0-.562.081-1.135.242-1.723a8.102 8.102 0 0 1 .654-1.667 7.1 7.1 0 0 1 .96-1.414c.368-.42.763-.751 1.183-.995l3.377-1.951v2.526l-3.377 1.952c-.323.184-.592.486-.813.908-.219.42-.329.844-.329 1.268 0 .428.11.726.329.892.221.167.49.159.813-.027l.382-.222c.422-.246.817-.364 1.184-.364z"></path>
        <path fill="#2D6FEF" d="M196.749 122.624v9.103a7.21 7.21 0 0 1-.269 1.923 9.124 9.124 0 0 1-.726 1.866 8.238 8.238 0 0 1-1.086 1.599 5.3 5.3 0 0 1-1.326 1.121c-.469.271-.912.408-1.328.41a1.755 1.755 0 0 1-1.086-.344c-.306-.234-.548-.573-.728-1.028-.177-.453-.266-.988-.266-1.611v-9.105l1.894-1.094v9.103c0 .283.042.521.118.722.079.198.186.351.323.453l.484.151c.184 0 .378-.062.589-.184.209-.12.41-.29.596-.509.19-.218.354-.459.49-.722.139-.265.246-.542.329-.84.083-.298.124-.589.124-.867V123.7l1.868-1.076z"></path>
        <path fill="#2D6FEF" d="m205.457 117.596 1.895-1.092v13.645l-1.895 1.094v-8.573l-1.913 5.574-1.51.873-1.882-3.345v8.534l-1.897 1.096v-13.649l1.884-1.086 2.664 4.762 2.654-7.833z"></path>
        <path fill="#2D6FEF" d="m210.754 125.656 4.22-2.436v2.529l-5.36 3.094-.757.437v-13.647l1.883-1.086 4.234-2.445v2.53l-4.22 2.434v3.041l3.407-1.969v2.511l-3.407 1.969v3.038z"></path>
        <path fill="#E7EBF7" d="m188.818 147.558-39.312 22.696v57.162l39.312-22.697v-57.161z"></path>
        <path fill="#B8B2DE" d="M170.688 210.424c5.551-3.746 9.543-8.404 9.543-8.404s-5.405-1.231-5.405-3.63v-6.914l-5.667 3.321-5.663 3.219v6.914c0 2.402-5.403 9.87-5.403 9.87s3.99.05 9.542-2.614c.25-.079.519-.188.827-.366.236-.134.465-.279.697-.422.236-.126.465-.248.701-.385.308-.178.577-.378.828-.589z"></path>
        <path fill="#C3C2E5" d="M176.662 177.181c0 6.766-3.456 17.116-7.726 19.581-4.267 2.464-7.727-3.892-7.727-10.658 0-6.768 3.46-14.251 7.727-16.714 4.27-2.464 7.726 1.024 7.726 7.791z"></path>
        <path fill="#C3C2E5" d="M175.664 176.163s3.215-2.552 3.142 1.775c-.072 4.327-4.287 7.363-4.287 7.363l1.145-9.138z"></path>
        <path fill="#C3C2E5" d="M162.35 183.85s-3.21 1.158-3.139 5.402c.072 4.245 4.285 2.414 4.285 2.414l-1.146-7.816z"></path>
        <path fill="#868DC7" d="M176.106 181.601c-.666 2.077-1.769 5.271-2.371 5.717-.436.325-2.459-.943-4.532.255-2.202 1.276-4.459 5.016-4.922 5.206-.602.246-1.7-1.676-2.369-2.983l-.417.24c.184 1.711.535 4.708.986 7.304.675 3.888 2.449 5.921 6.456 3.251l.144-.085c4.009-1.956 5.779-6.037 6.456-10.706.451-3.115.8-6.515.984-8.439l-.415.24z"></path>
        <path fill="#C3C2E5" d="M171.95 190.001c-.277-.358-1.969-1.415-2.774-1.013l-.002-.009-.018.015-.019.006-.002.012c-.805.528-2.497 3.537-2.774 4.216-.281.686.778 2.738 2.648 1.659l.294-.17c1.869-1.08 2.928-4.354 2.647-4.716z"></path>
        <path fill="#868DC7" d="M175.58 163.404c-.755-.178-3.564.475-6.425 2.109-2.999 1.711-6.052 4.437-6.863 5.562-1.263 1.756-1.725 3.696-1.725 5.845 0 5.302.786 7.465.786 7.465 1.31-2.273 1.641-6.708 2.143-7.392 1.036-1.407 2.666-.83 4.687-1.487.244-.081 1.436-.803 1.678-1.01 1.942-1.671 3.51-3.99 4.515-3.783.5.104.833 4.156 2.143 4.915 0 0 .786-3.07.786-8.369 0-2.151-.462-3.56-1.725-3.855z"></path>
        <path fill="#868DC7" d="M185.159 200.572a45.86 45.86 0 0 0-2.801.218c-4.217.486-6-.3-6-.3-.033-.019-5.638 7.58-7.2 9.702-1.564-.314-7.169-1.443-7.2-1.39 0 0-1.783 2.847-6.002 7.234a150.12 150.12 0 0 0-2.801 3.013c-1.781 1.969-2.949 4.939-2.949 7.496v.467l18.54-10.706.824-.473 18.54-10.704v-.467c0-2.557-1.168-4.181-2.951-4.09z"></path>
        <path fill="#C3C2E5" d="m198.838 188.539 1.08 2.295 2.416-.928-1.748 3.28.412 2.968-2.16-.267-2.161 2.762.413-3.444-1.745-1.264 2.413-1.861 1.08-3.541z"></path>
        <path fill="#868DC7" d="m206.895 183.819 1.08 2.294 2.414-.925-1.748 3.278.414 2.971-2.16-.267-2.159 2.759.412-3.444-1.748-1.262 2.416-1.863 1.079-3.541z"></path>
        <path fill="#868DC7" d="m214.951 179.099 1.08 2.296 2.416-.927-1.748 3.278.412 2.97-2.16-.268-2.161 2.761.414-3.444-1.746-1.264 2.414-1.859 1.079-3.543z"></path>
        <path fill="#868DC7" d="m223.008 174.459 1.079 2.296 2.414-.927-1.748 3.281.416 2.968-2.161-.267-2.16 2.761.412-3.446-1.748-1.261 2.416-1.862 1.08-3.543z"></path>
        <path fill="#868DC7" d="m231.064 169.741 1.079 2.294 2.416-.927-1.747 3.281.411 2.968-2.159-.267-2.16 2.759.412-3.443-1.746-1.262 2.414-1.862 1.08-3.541z"></path>
        <path fill="#868DC7" d="m235.339 120.907-40.776 23.541v3.673l40.776-23.54v-3.674z"></path>
        <path fill="#868DC7" d="m235.339 128.591-40.776 23.54v3.673l40.776-23.542v-3.671z"></path>
        <path fill="#C3C2E5" d="m235.339 136.275-40.776 23.54v3.674l40.776-23.543v-3.671z"></path>
        <path fill="#C3C2E5" d="m235.339 143.957-40.776 23.542v3.671l40.776-23.54v-3.673z"></path>
        <path fill="#C3C2E5" d="m235.339 151.496-40.776 23.54v3.674l40.776-23.543v-3.671z"></path>
        <path fill="#C3C2E5" d="M212.446 172.395v3.673l22.893-13.216v-3.674l-22.893 13.217z"></path>
        <path fill="#959BD1" d="M300.407 1.77 297.57.143l-.015-.009-.043-.024-.008.008c-.257-.162-.588-.17-.962.045l-96.81 55.894c-.798.46-1.446 1.698-1.446 2.761V159.62c0 .492.149.846.379 1.055l-.009.012.029.016.104.058 2.98 1.723 1.829-3.402-.737-.178 93.681-54.088c.798-.461 1.448-1.696 1.448-2.759V2.963l.97.802 1.447-1.996z"></path>
        <path fill="#B0B5DD" d="M300.962 103.756c0 1.066-.646 2.3-1.444 2.762l-96.814 55.895c-.796.459-1.444-.029-1.444-1.092V60.519c0-1.063.648-2.3 1.444-2.761l96.814-55.893c.798-.462 1.444.026 1.444 1.092v100.799z"></path>
        <path fill="#ffffff" d="m298.13 102.906-94.036 54.291V67.504l94.036-54.29v89.692z"></path>
        <path fill="#2D6FEF" d="m298.374 9.909-3.808 2.198V7.03l3.808-2.2v5.08z"></path>
        <path fill="#6B73BC" d="m292.437 13.338-3.808 2.198v-5.08l3.808-2.198v5.08z"></path>
        <path fill="#2D6FEF" d="M231.043 62.778c.225-.43.337-.856.337-1.284 0-.426-.112-.718-.337-.877-.224-.157-.497-.143-.817.041l-1.882 1.088v3.04l1.882-1.085c.32-.187.593-.497.817-.923zm.358-5.005c.372 0 .695.101.97.302.273.202.49.498.651.895.162.397.242.875.242 1.436 0 .552-.074 1.106-.221 1.667a8.116 8.116 0 0 1-.618 1.621c.254.22.457.52.601.906.149.385.224.853.224 1.403v4.029l-1.897 1.096v-4.031c0-.428-.11-.726-.323-.902-.217-.176-.484-.17-.804.015l-1.882 1.085v5.568l-1.926 1.111V60.331l1.911-1.104 1.882-1.086c.422-.242.819-.368 1.19-.368z"></path>
        <path fill="#2D6FEF" d="m236.665 65.531 4.219-2.436v2.53l-5.359 3.094-.757.436V55.508l1.882-1.086 4.234-2.445v2.53l-4.219 2.434v3.04l3.41-1.968v2.513l-3.41 1.967v3.038z"></path>
        <path fill="#2D6FEF" d="M246.814 54.44c.366.005.686.108.961.315.276.21.493.513.65.91.153.4.232.879.232 1.441 0 .561-.081 1.134-.24 1.713a8.487 8.487 0 0 1-.656 1.661 7.117 7.117 0 0 1-.966 1.421 4.72 4.72 0 0 1-1.191.997l-3.421 1.977v-2.53l3.421-1.975c.322-.186.593-.488.819-.912.223-.422.337-.848.337-1.276 0-.426-.114-.722-.337-.885-.226-.164-.497-.153-.819.033l-.356.205c-.422.244-.817.368-1.191.376a1.501 1.501 0 0 1-.966-.3c-.275-.209-.493-.513-.648-.91-.155-.397-.231-.879-.231-1.444 0-.56.08-1.135.24-1.723a8.366 8.366 0 0 1 .651-1.667c.275-.525.598-.995.962-1.414.368-.42.761-.751 1.183-.993l3.38-1.953v2.526l-3.38 1.952c-.323.184-.594.488-.811.91a2.708 2.708 0 0 0-.329 1.266c0 .428.11.726.329.894.217.167.488.157.811-.027l.385-.224c.422-.246.815-.364 1.181-.364z"></path>
        <path fill="#2D6FEF" d="M256.908 42.725v9.103a7.29 7.29 0 0 1-.267 1.924 9.163 9.163 0 0 1-.728 1.867 8.144 8.144 0 0 1-1.088 1.6c-.416.475-.856.852-1.321 1.12-.47.27-.913.406-1.328.408a1.72 1.72 0 0 1-1.086-.343c-.306-.232-.55-.574-.73-1.026-.178-.453-.267-.99-.267-1.614V46.66l1.896-1.094v9.105c0 .283.042.521.118.72.079.199.187.354.321.455l.484.149c.184 0 .378-.062.592-.182.208-.122.407-.292.595-.511.191-.215.352-.46.488-.722.139-.263.246-.542.329-.84a3.23 3.23 0 0 0 .126-.866v-9.07l1.866-1.078z"></path>
        <path fill="#2D6FEF" d="m265.616 37.697 1.896-1.092V50.25l-1.896 1.094v-8.571l-1.912 5.574-1.51.87-1.882-3.344v8.536l-1.896 1.095V41.856l1.882-1.087 2.664 4.763 2.654-7.835z"></path>
        <path fill="#2D6FEF" d="m270.912 45.76 4.222-2.44v2.532l-5.361 3.093-.757.436V35.736l1.884-1.088 4.234-2.445v2.53l-4.222 2.436v3.039l3.409-1.97v2.514l-3.409 1.967v3.04z"></path>
        <path fill="#E7EBF7" d="m249.114 67.626-39.346 22.717v57.211l39.346-22.717v-57.21z"></path>
        <path fill="#A5A1D7" d="m221.22 104.507-2.223 4.778s.771 5.082.591 7.126c-.225 2.531-2.364 4.442-2.364 6.167 0 2.427 2.308 1.372 2.253 3.206-.054 1.727-.764 2.404-2.873 6.162-1.607 2.863-.788 8.112-.788 8.112l13.624-7.868s.563-34.999 0-34.674c-.561.325-8.22 6.991-8.22 6.991z"></path>
        <path fill="#A5A1D7" d="m237.911 94.871 2.222 2.211s-.772 5.976-.59 7.808c.224 2.271 2.364 1.713 2.364 3.438 0 2.426-2.308 4.035-2.252 5.804.054 1.669.763 1.526 2.871 2.846 1.609 1.007.788 7.202.788 7.202l-13.625 7.868s-.562-34.352 0-34.676c.565-.325 8.222-2.501 8.222-2.501z"></path>
        <path fill="#868DC7" d="M245.197 119.716c-1.732.078-5.225.428-5.225.428l-10.164 5.868-.819.471-10.164 5.868s-3.494 3.688-5.225 5.608c-2.035 2.256-2.176 8.637-2.176 8.637l17.565-10.141.819-.474 17.567-10.141s-.141-6.217-2.178-6.124z"></path>
        <path fill="#B8B2DE" d="M233.748 116.673c0-1.224-.039-2.467-.091-3.58l-8.432 4.869a84.951 84.951 0 0 0-.093 3.686c0 3.572-6.307 10.703-6.307 10.703s2.486 3.244 8.694.729c.364-.069 3.479-1.868 3.845-2.222 6.207-4.65 8.691-10.764 8.691-10.764s-6.307.151-6.307-3.421z"></path>
        <path fill="#C3C2E5" d="M236.874 101.2c0 6.507-3.33 16.462-7.434 18.83-4.104 2.371-7.432-3.741-7.432-10.25 0-6.508 3.328-13.703 7.432-16.074 4.104-2.37 7.434.985 7.434 7.494z"></path>
        <path fill="#A5A1D7" d="M240.677 93.95c-.159-2.552-.594-4.947-1.895-6.277-1.261-1.289-3.373-2.166-5.634 1.762-2.499-2.296-6.073-2.054-10.352 3.992-4.83 6.824-4.615 17.447-2.335 21.631 1.654-7.008 7.369-11.436 10.575-17.252.424.883 1.068 1.52 1.777 1.975.871.556 1.876.809 2.861 1.1 1.536.455 3.224 2.878 2.436 7.238 2.573-4.489 2.71-11.85 2.567-14.169z"></path>
        <path fill="#868DC7" d="m258.997 108.642 1.082 2.294 2.413-.927-1.747 3.28.411 2.969-2.159-.267-2.159 2.761.411-3.446-1.746-1.262 2.414-1.861 1.08-3.541z"></path>
        <path fill="#868DC7" d="m267.053 103.922 1.079 2.294 2.416-.927-1.748 3.28.414 2.968-2.161-.266-2.16 2.761.412-3.446-1.748-1.262 2.416-1.861 1.08-3.541z"></path>
        <path fill="#868DC7" d="m275.11 99.202 1.081 2.294 2.414-.927-1.748 3.28.412 2.968-2.159-.266-2.16 2.761.412-3.446-1.746-1.262 2.414-1.861 1.08-3.541z"></path>
        <path fill="#868DC7" d="m283.167 94.563 1.077 2.293 2.416-.924-1.748 3.278.414 2.97-2.159-.268-2.162 2.761.412-3.444-1.748-1.264 2.416-1.861 1.082-3.541z"></path>
        <path fill="#868DC7" d="m291.222 89.843 1.082 2.293 2.413-.926-1.747 3.28.411 2.968-2.159-.265-2.159 2.76.411-3.444-1.745-1.262 2.413-1.864 1.08-3.54z"></path>
        <path fill="#868DC7" d="M295.497 41.008 254.723 64.55v3.674l40.774-23.542v-3.674z"></path>
        <path fill="#868DC7" d="m295.497 48.692-40.774 23.542v3.674l40.774-23.542v-3.674z"></path>
        <path fill="#C3C2E5" d="m295.497 56.376-40.774 23.542v3.672l40.774-23.54v-3.674z"></path>
        <path fill="#C3C2E5" d="M295.497 64.06 254.723 87.6v3.674l40.774-23.542V64.06z"></path>
        <path fill="#C3C2E5" d="m295.497 71.6-40.774 23.54v3.673l40.774-23.542V71.6z"></path>
        <path fill="#C3C2E5" d="M272.606 92.498v3.672l22.891-13.215V79.28l-22.891 13.217z"></path>
        <path fill="#959BD1" d="m371.697 23.059-2.837-1.626-.015-.008-.041-.025-.009.009c-.256-.162-.587-.17-.959.045l-96.812 55.895c-.798.46-1.446 1.697-1.446 2.762V180.91c0 .495.151.846.379 1.055l-.007.015.027.014.102.06 2.984 1.721 1.827-3.4-.737-.18 93.683-54.086c.798-.461 1.443-1.698 1.443-2.761V24.254l.973.801 1.445-1.996z"></path>
        <path fill="#B0B5DD" d="M372.256 125.048c0 1.063-.65 2.3-1.446 2.761l-96.814 55.894c-.798.461-1.444-.027-1.444-1.092v-100.8c0-1.065.646-2.3 1.444-2.761l96.814-55.896c.796-.46 1.446.03 1.446 1.093v100.801z"></path>
        <path fill="#ffffff" d="m369.422 124.196-94.036 54.292V88.794l94.036-54.29v89.692z"></path>
        <path fill="#2D6FEF" d="m369.668 31.2-3.81 2.199v-5.08l3.81-2.199v5.08z"></path>
        <path fill="#6B73BC" d="m363.73 34.63-3.81 2.196v-5.078l3.81-2.198v5.08z"></path>
        <path fill="#2D6FEF" d="M302.335 84.068c.225-.43.337-.857.337-1.285 0-.426-.112-.716-.337-.877-.224-.157-.497-.143-.817.044l-1.882 1.085v3.041l1.882-1.086c.32-.186.593-.496.817-.922zm.358-5.006c.372 0 .695.102.97.302.273.203.49.499.651.896.159.397.24.875.24 1.435a6.63 6.63 0 0 1-.219 1.667 8.074 8.074 0 0 1-.619 1.624c.255.217.458.517.604.904.145.385.222.852.222 1.402v4.03l-1.897 1.093v-4.029c0-.428-.11-.726-.325-.901-.215-.176-.482-.17-.802.016l-1.882 1.084v5.568l-1.926 1.11V81.622l1.911-1.105 1.882-1.086c.422-.244.817-.368 1.19-.368z"></path>
        <path fill="#2D6FEF" d="m307.958 86.82 4.219-2.436v2.53l-5.359 3.094-.757.437V76.8l1.882-1.088 4.234-2.445v2.53l-4.219 2.434v3.04l3.408-1.969v2.511l-3.408 1.97v3.038z"></path>
        <path fill="#2D6FEF" d="M318.108 75.73c.364.004.685.108.96.314.275.212.49.514.649.91.154.402.232.88.232 1.442 0 .563-.081 1.134-.24 1.715a8.404 8.404 0 0 1-.655 1.659 7.065 7.065 0 0 1-.969 1.42c-.37.423-.767.756-1.187.998l-3.423 1.977v-2.53l3.423-1.975c.321-.186.59-.488.817-.912a2.7 2.7 0 0 0 .337-1.276c0-.426-.113-.722-.337-.885-.227-.164-.496-.154-.817.033l-.36.204c-.42.245-.815.37-1.189.377a1.499 1.499 0 0 1-.966-.3c-.275-.209-.492-.513-.647-.91-.155-.397-.232-.88-.232-1.444 0-.56.081-1.135.24-1.723a8.187 8.187 0 0 1 .652-1.667 7.27 7.27 0 0 1 .961-1.415c.368-.42.761-.75 1.181-.993l3.382-1.952v2.526l-3.382 1.952c-.32.184-.589.488-.808.91a2.68 2.68 0 0 0-.329 1.266c0 .428.107.726.329.891.219.17.488.162.808-.025l.387-.223c.422-.244.815-.364 1.183-.364z"></path>
        <path fill="#2D6FEF" d="M328.199 64.015v9.103a7.28 7.28 0 0 1-.266 1.923 9.16 9.16 0 0 1-.728 1.868 8.317 8.317 0 0 1-1.086 1.599c-.416.476-.859.85-1.324 1.12-.47.27-.912.406-1.328.41a1.737 1.737 0 0 1-1.086-.345c-.306-.232-.55-.573-.73-1.026-.178-.453-.267-.99-.267-1.613v-9.105l1.897-1.094v9.105c0 .283.041.52.118.72.078.198.186.351.322.454l.48.15c.184 0 .381-.063.594-.183a2.36 2.36 0 0 0 .596-.51c.188-.216.351-.46.488-.722a4.36 4.36 0 0 0 .329-.838c.082-.3.126-.59.126-.869v-9.07l1.865-1.077z"></path>
        <path fill="#2D6FEF" d="m336.908 58.989 1.896-1.092V71.54l-1.896 1.096V64.06l-1.912 5.576-1.51.873-1.882-3.347v8.536l-1.896 1.094V63.146l1.882-1.086 2.664 4.762 2.654-7.833z"></path>
        <path fill="#2D6FEF" d="m342.205 67.05 4.221-2.437v2.53l-5.361 3.091-.755.437V57.026l1.882-1.086 4.234-2.447v2.53l-4.221 2.436v3.039l3.408-1.97v2.514l-3.408 1.967v3.04z"></path>
        <path fill="#E7EBF7" d="m320.287 88.918-39.349 22.714v57.211l39.349-22.716v-57.21z"></path>
        <path fill="#B8B2DE" d="M301.476 152.272c5.469-3.738 12.084-12.305 12.084-12.305s-3.905-.465-5.63-.97c-1.728-.505-2.553-4.43-2.553-6.939v-5l-4.643 2.683-.011.004-4.643 2.683v4.997c0 2.509-.827 7.39-2.555 9.889-1.727 2.496-5.628 7.471-5.628 7.471s6.613.929 12.082-1.649l.442-.196.307-.193.304-.159.444-.316z"></path>
        <path fill="#C3C2E5" d="M308.166 115.978c0 6.509-3.328 16.462-7.432 18.833-4.106 2.368-7.434-3.744-7.434-10.251s3.328-13.703 7.434-16.073c4.104-2.371 7.432.984 7.432 7.491z"></path>
        <path fill="#C3C2E5" d="M307.203 115s3.09-2.453 3.022 1.708c-.07 4.16-4.124 7.08-4.124 7.08l1.102-8.788z"></path>
        <path fill="#C3C2E5" d="M294.4 122.392s-3.09 1.113-3.021 5.196c.07 4.081 4.122 2.321 4.122 2.321l-1.101-7.517z"></path>
        <path fill="#A5A1D7" d="m293.301 124.56 3.756-7.401s2.412-.558 6.47-1.218c4.211-.684 4.639 2.073 4.639 2.073s4.792-12.413-.803-15.35c-3.946-2.074-9.005-.213-12.761 8.944-4.654 4.221-3.502 13.188-1.301 12.952z"></path>
        <path fill="#868DC7" d="M319.91 142.339c-.225-2.192-1.053-3.375-2.929-3.191-1.876.182-7.136.445-7.136.445-1.764 6.567-7.593 10.726-9.233 11.785-1.64.834-7.467 3.405-9.233-1.125 0 0-5.26 5.812-7.136 7.796-1.876 1.985-2.703 4.122-2.929 6.575-.223 2.453-.376 4.219-.376 4.219l19.23-11.101.889-.515 19.23-11.1s-.151-1.593-.377-3.788z"></path>
        <path fill="#C3C2E5" d="m330.289 129.932 1.08 2.294 2.413-.927-1.745 3.28.411 2.968-2.159-.266-2.159 2.761.411-3.444-1.748-1.264 2.414-1.861 1.082-3.541z"></path>
        <path fill="#868DC7" d="m338.346 125.212 1.079 2.293 2.416-.924-1.748 3.278.412 2.97-2.159-.269-2.162 2.762.416-3.444-1.748-1.262 2.414-1.863 1.08-3.541z"></path>
        <path fill="#868DC7" d="m346.402 120.492 1.08 2.295 2.414-.926-1.746 3.278.414 2.968-2.162-.267-2.159 2.762.412-3.444-1.748-1.262 2.416-1.863 1.079-3.541z"></path>
        <path fill="#868DC7" d="m354.457 115.854 1.08 2.294 2.416-.926-1.748 3.28.412 2.968-2.16-.267-2.161 2.761.416-3.445-1.748-1.262 2.414-1.864 1.079-3.539z"></path>
        <path fill="#868DC7" d="m362.515 111.134 1.079 2.294 2.414-.926-1.746 3.28.414 2.968-2.161-.267-2.16 2.759.412-3.443-1.748-1.262 2.416-1.862 1.08-3.541z"></path>
        <path fill="#868DC7" d="m366.787 62.3-40.773 23.54v3.673l40.773-23.542V62.3z"></path>
        <path fill="#868DC7" d="m366.787 69.984-40.773 23.54v3.674l40.773-23.542v-3.672z"></path>
        <path fill="#C3C2E5" d="m366.787 77.666-40.773 23.542v3.673l40.773-23.542v-3.673z"></path>
        <path fill="#C3C2E5" d="m366.787 85.35-40.773 23.542v3.672l40.773-23.54V85.35z"></path>
        <path fill="#C3C2E5" d="m366.787 92.887-40.773 23.542v3.673l40.773-23.542v-3.673z"></path>
        <path fill="#C3C2E5" d="M343.899 113.788v3.673l22.889-13.217v-3.673l-22.889 13.217z"></path>
        <path fill="#C3C2E5" d="M470.71 174.635c1.239.331 10.417-.104 13.767 8.693 3.351 8.797 6.172 17.07 7.289 21.763 1.117 4.691-.502 9.608-7.289 15.865-6.788 6.257-9.876 7.704-9.876 7.704s-7.024-6.587-8.114-15.301c-1.088-8.716 4.223-38.724 4.223-38.724z"></path>
        <path fill="#2D29EC" d="m466.402 214.322 24.13 13.931.132-20.742-24.129-13.93-.133 20.741z"></path>
        <path fill="#696CFF" d="m464.34 215.471 24.129 13.93.133-20.741-24.13-13.931-.132 20.742z"></path>
        <path fill="#696CFF" d="m488.602 208.66 2.062-1.148-.133 20.741-2.062 1.148.133-20.741z"></path>
        <path fill="#5D45F1" d="m490.664 207.512-2.062 1.148-24.262-14.071 2.194-1.008 24.13 13.931z"></path>
        <path fill="#DCDCF4" d="m467.201 195.134.016-2.459 24.13 13.931-.131 20.741-1.7-.98.116-18.282-22.431-12.951z"></path>
        <path fill="#6D3439" d="M435.037 326.79c1.694-1.059 12.673 1.992 12.673 1.992l11.835 3.973-.904 8.913s-4.211 4.503-10.042.573c-3.479-2.344-10.199-5.359-12.725-9-1.832-2.641-2.531-5.39-.837-6.451z"></path>
        <path fill="#6D3439" d="M464.318 309.507c1.694-1.059 12.673 1.992 12.673 1.992l11.835 3.973-.906 8.915s-4.207 4.5-10.042.57c-3.477-2.343-10.197-5.359-12.724-8.997-1.833-2.643-2.532-5.394-.836-6.453z"></path>
        <path fill="#263D58" d="M479.465 227.945s5.446 5.338 6.29 16.553c.378 5.047-2.315 26.576-2.315 26.576s4.143 11.132 5.169 18.307c1.22 8.52.918 25.154.918 25.154-.701 2.219-3.009 4.321-7.617 3.979-4.743-.351-8.086-6.428-8.086-6.428s-1.642-13.798-3.185-22.938c-.879-5.202-1.872-8.648-2.364-12.975-.197-4.975-.703-17.073-.703-17.073s-5.69 22.622-7.49 29.537c3.51 11.523.389 42.885.062 45.382-7.024 5.537-11.355.302-14.257-4.238.17-6.973-.943-19.269-1.204-29.02-.202-7.686-.078-10.904-.202-13.489-.245-5.022 2.039-20.119 3.197-31.677 1.349-13.474 1.622-23.218 1.622-23.218l30.165-4.432z"></path>
        <path fill="#DCDCF4" d="M451.609 194.988c-2.383 7.382-.252 18.975-.407 23.143-.274 7.295-3.397 15.022-2.135 19.533 2.501 2.497 9.103 5.585 16.659 4.861 6.155-.589 13.245-3.986 16.803-10.044.045-1.181-3.204-7.289-2.501-11.082 1.688-9.066 3.022-16.334 3.248-23.906.157-5.287.016-8.044-2.205-15.292-.983-3.21-4.648-4.784-8.967-4.912-3.228.308-5.094 6.257-13.179 6.257-5.67 3.218-5.064 4.463-7.316 11.442z"></path>
        <path fill="#A5B2F8" d="M463.119 185.018c4.116-.759 7.756-2.016 11.482-3.787l-1.293-7.208-10.061 2.374s1.233 5.14 0 8.309l-.128.312z"></path>
        <path fill="#C8C7FB" d="M476.947 158.837c-2.067-4.385-9.732-9.436-17.046-2.604-4.467 4.176-4.74 10.894-4.337 15.086.354 3.672 2.98 7.083 5.336 7.498 2.875.507 8.603-.904 12.408-4.794 4.288-4.381 5.244-11.78 3.639-15.186z"></path>
        <path fill="#F68C19" d="M477.885 157.689c-1.214-5.634-3.919-8.979-10.685-7.454-2.294.517-3.607 1.187-5.181 1.479-1.903.353-3.094-.813-3.738-1.479-.266 1.832-.566 2.653.646 3.785-2.005.608-3.364.519-3.364.519s1.355 5.752 6.741 8.025c.191.643 1.535 3.986 1.878 4.493 1.144-.697 2.398-.724 2.985.626.786 1.81-.312 3.109-1.888 5.004-1.169 5.349 6.356 8.581 6.356 8.581s3.468-5.315 6.668-8.831c3.202-3.517 4.304-11.217-.418-14.748z"></path>
        <path fill="#C3C2E5" d="M467.163 180.664c-3.947 1.887-8.239 2.882-8.239 2.882s6.509 3.175 10.597 1.472c2.157-.899 5.537-2.751 6.316-3.75 1.057-1.352-1.237-3.696-1.237-3.696s-2.709.834-7.437 3.092z"></path>
        <path fill="#C8C7FB" d="M410.662 162.736s-7.566-4.48-11.215-7.01c-3.644-2.53-7.357-4.72-7.512-3.105-.116 1.177 1.973 2.174 2.732 2.828.759.653 1.328 1.282 1.777 1.626-.695 1.911-2.184 7.04 1.204 8.825 3.39 1.787 8.792 3.589 8.792 3.589l4.222-6.753z"></path>
        <path fill="#C3C2E5" d="M459.448 185.916c-3.001-3.227-10.102-5.597-15.61-7.947-4.06-1.733-13.113-6.616-19.755-10.24-5.092-2.78-11.434-5.154-12.561-5.669-1.249-.571-3.229-1.031-5.31 2.405-1.414 2.335-1.963 5.175 0 6.931 2.393 2.139 7.206 4.973 13.279 10.125 2.608 2.213 14.435 9.961 19.904 13.872 5.469 3.91 13.492 15.128 17.062 12.617 2.927-2.058 4.857-7.034 5.398-11.928.493-4.451-.072-7.657-2.407-10.166z"></path>
        <path fill="#C8C7FB" d="M405.35 67.314c-1.988.782-5.39 5.191-6.964 10.023-1.297 3.973-.058 6.871-1.057 12.433-.712 3.95-.05 7.202-.05 7.202s-12.505.534-15.591.01c-3.082-.523-5.134-2.717-7.473-5.131-2.53-2.61-6.015-3.678-7.868-2.282-1.591 1.198-.749 4.189.328 5.833 2.168 3.318 1.98 4.02 4.03 6.152.85.883 3.135 2.436 6.935 2.178 2.093-.141 4.767.219 6.861.593 2.091.377 11.709 2.584 15.523 2.567 3.28-.017 4.267-2.333 5.51-4.112 2.682-3.843 2.767-14.48 4.283-21.989 1.514-7.51-.599-10.033-4.467-13.477z"></path>
        <path fill="#F68C19" d="M404.537 66.377s-2.615.895-5.504 7.35c-2.89 6.456-3.378 15.743-3.378 15.743s3.556 2.654 7.92 2.95c4.573.308 4.875-.652 6.149-1.872 0 0 1.98-12.402 1.827-16.036-.209-4.981-7.014-8.135-7.014-8.135z"></path>
        <path fill="#B8B2DE" d="M267.829 431.538h3.365l86.089-49.705c4.348-2.511 12.013-2.192 17.035.708l58.117 33.553c.569.329 1.074.68 1.529 1.042h2.627v4.557h-.009c-.012 1.59-.968 3.109-2.924 4.238l-43.004 24.826 2.445 1.409c.631.364 1.189.751 1.678 1.158h2.457v4.147c.111 1.696-.836 3.332-2.913 4.532l-35.613 20.559c-4.345 2.511-12.015 2.195-17.035-.703l-11.572-6.682-36.281-20.949-21.836-12.604c-2.73-1.577-4.126-3.606-4.145-5.529h-.01v-4.557z"></path>
        <path fill="#DEE4F3" d="m433.658 421.637-43.004 24.828 2.445 1.411c5.022 2.9 5.57 7.326 1.225 9.838l-35.614 20.559c-4.347 2.511-12.017 2.194-17.037-.708l-11.572-6.68-36.281-20.947-21.836-12.606c-5.02-2.898-5.572-7.325-1.222-9.838l86.521-49.951c4.348-2.511 12.013-2.194 17.035.706l58.117 33.555c5.02 2.898 5.572 7.326 1.223 9.833z"></path>
        <path fill="#868DC7" d="m417.599 413.236-35.785 20.66 3.295 1.903 35.787-20.661-3.297-1.902z"></path>
        <path fill="#868DC7" d="m410.436 409.101-35.787 20.658 3.295 1.903 35.787-20.661-3.295-1.9z"></path>
        <path fill="#C3C2E5" d="m400.216 403.199-35.784 20.663 3.294 1.901 35.785-20.661-3.295-1.903z"></path>
        <path fill="#C3C2E5" d="m393.054 399.063-35.784 20.663 3.294 1.903 35.783-20.663-3.293-1.903z"></path>
        <path fill="#C3C2E5" d="m385.889 394.926-35.785 20.663 3.295 1.903 35.783-20.663-3.293-1.903z"></path>
        <path fill="#C3C2E5" d="m349.136 407.818-2.174-3.131 3.02-2.447-5.583-.188-3.553-2.77-1.277 3.014-5.216.734 4.795 2.052.328 3.224 4.238-1.745 5.422 1.257z"></path>
        <path fill="#C3C2E5" d="m360.784 401.094-2.174-3.13 3.02-2.448-5.583-.189-3.555-2.769-1.275 3.013-5.216.735 4.792 2.054.331 3.222 4.238-1.744 5.422 1.256z"></path>
        <path fill="#868DC7" d="m372.43 394.37-2.176-3.129 3.022-2.447-5.582-.19-3.556-2.77-1.274 3.014-5.218.734 4.794 2.054.331 3.222 4.238-1.743 5.421 1.255z"></path>
        <path fill="#ffffff" d="m376.426 440.761-42.753 24.686-53.84-31.084 42.756-24.686 53.837 31.084z"></path>
        <path fill="#B8B2DE" d="M307.357 423.651c6.549-3.191 13.106-4.418 13.106-4.418s-1.781 5.759.477 7.064c2.261 1.307 6.516 3.762 6.516 3.762l-6.209 3.529-6.11 3.584-6.516-3.76c-2.26-1.305-12.236-.277-12.236-.277s2.124-3.785 7.653-7.566c.209-.195.457-.389.792-.58.258-.151.519-.287.78-.43.246-.151.486-.302.744-.449a6.127 6.127 0 0 1 1.003-.459z"></path>
        <path fill="#C3C2E5" d="M341.918 436.103c-6.373-3.682-18.003-6.05-22.645-3.371-4.641 2.68-.538 9.394 5.835 13.074 6.375 3.679 15.304 4.49 19.947 1.81 4.642-2.679 3.235-7.835-3.137-11.513z"></path>
        <path fill="#C3C2E5" d="M342.331 437.595s4.151-1.639.039-3.924c-4.116-2.286-9.268.033-9.268.033l9.229 3.891z"></path>
        <path fill="#C3C2E5" d="M327.853 445.953s-2.838 2.397-6.795.023c-3.959-2.375.056-5.351.056-5.351l6.739 5.328z"></path>
        <path fill="#868DC7" d="M337.45 434.223c-2.318-.503-5.926-1.202-6.672-.877-.544.234-.451 2.831-2.706 4.13-2.399 1.382-7.148 1.475-7.578 1.808-.561.43.651 2.511 1.52 3.851l-.453.261c-1.51-1.102-4.143-3.063-6.341-4.898-3.297-2.751-4.249-5.527.446-7.849l.16-.091c4.02-2.712 8.827-2.162 13.593-.259 3.179 1.27 6.573 2.79 8.484 3.661l-.453.263z"></path>
        <path fill="#C3C2E5" d="M327.279 433.569c.186.458.263 2.625-.554 3.163l.008.008-.027.009-.012.014-.014-.004c-.933.469-4.69.426-5.48.318-.798-.107-2.157-2.219-.122-3.394l.319-.184c2.033-1.175 5.694-.391 5.882.07z"></path>
        <path fill="#868DC7" d="M354.302 444.614c-.242.805-2.382 3.097-5.477 4.904-3.245 1.893-7.473 3.289-8.972 3.438-2.341.236-4.42-.385-6.443-1.553-4.993-2.884-6.604-4.799-6.604-4.799 2.854.002 7.212 2.102 8.128 2 1.887-.211 2.23-2.06 3.949-3.605.209-.186 1.537-.916 1.863-1.032 2.629-.921 5.666-1.136 6.019-2.193.176-.529-3.46-3.046-3.464-4.693 0 0 3.318.929 8.311 3.812 2.025 1.169 3.1 2.367 2.69 3.721z"></path>
        <path fill="#868DC7" d="M324.504 415.378a50.54 50.54 0 0 1-1.727 2.52c-2.751 3.71-2.981 5.816-2.981 5.816.002.041-10.205 1.187-13.053 1.506-.554 1.644-2.538 7.537-2.608 7.535 0 0-3.649.134-10.075 1.721-1.353.337-2.917.686-4.36.999-2.824.61-6.259.093-8.667-1.297l-.438-.255 20.164-11.643.894-.515 20.164-11.642.441.254c2.407 1.39 3.303 3.371 2.246 5.001z"></path>
        <path fill="#B8B2DE" d="M437.934 405.4v-3.673h-2.087a8.267 8.267 0 0 0-.885-.596l-43.69-25.224 2.482-1.433c2.606-1.504 4.019-3.413 4.197-5.258h.016v-4.141h-2.085a8.11 8.11 0 0 0-.885-.593l-36.18-20.891c-4.42-2.548-12.209-2.227-17.308.72l-11.758 6.786-36.861 21.282-22.185 12.807c-.672.389-1.26.807-1.773 1.239h-2.451v4.418h.011c0 1.628.97 3.183 2.972 4.337l87.903 50.752c4.416 2.55 12.206 2.228 17.308-.718l59.044-34.091c2.66-1.534 4.071-3.489 4.201-5.373h.014v-.35z"></path>
        <path fill="#DEE4F3" d="m434.958 396.723-43.69-25.224 2.482-1.433c5.103-2.945 5.664-7.442 1.246-9.992l-36.182-20.891c-4.418-2.55-12.208-2.227-17.308.718l-11.759 6.788-36.86 21.282-22.186 12.807c-5.1 2.945-5.659 7.444-1.241 9.994l87.904 50.752c4.416 2.55 12.205 2.228 17.308-.718l59.045-34.088c5.101-2.946 5.659-7.442 1.241-9.995z"></path>
        <path fill="#ffffff" d="m376.815 377.295-43.438-25.078-54.7 31.579 43.44 25.079 54.698-31.58z"></path>
        <path fill="#B8B2DE" d="M305.858 394.287c6.594 3.162 18.433 4.759 18.433 4.759s-1.708-3.99-2.178-5.92c-.474-1.927 2.827-4.885 5.225-6.271 2.399-1.386 4.78-2.759 4.78-2.759l-5.128-2.96-.012-.006-5.126-2.96-4.78 2.759c-2.397 1.386-7.52 3.291-10.863 3.018-3.34-.273-10.251-1.26-10.251-1.26s2.766 6.836 8.247 10.644l.43.315.354.186.323.205c.173.099.357.18.546.25z"></path>
        <path fill="#C3C2E5" d="M344.251 380.644c-6.224 3.593-17.575 5.907-22.109 3.291-4.529-2.617-.525-9.171 5.699-12.764 6.221-3.591 14.939-4.383 19.469-1.768 4.534 2.616 3.163 7.65-3.059 11.241z"></path>
        <path fill="#C3C2E5" d="M344.653 379.188s4.052 1.597.038 3.831c-4.017 2.229-9.047-.033-9.047-.033l9.009-3.798z"></path>
        <path fill="#C3C2E5" d="M330.52 371.028s-2.771-2.341-6.635-.023c-3.864 2.319.056 5.223.056 5.223l6.579-5.2z"></path>
        <path fill="#A5A1D7" d="m327.84 371.171 9.15-.492s1.864 1.998 4.735 5.512c2.98 3.649.577 5.578.577 5.578s14.514-2.269 14.236-9.241c-.194-4.919-4.765-8.727-15.597-7.262-6.604-2.12-14.543 3.93-13.101 5.905z"></path>
        <path fill="#868DC7" d="M325.528 406.426c1.973-1.427 2.647-2.869 1.437-4.56-1.212-1.694-4.366-6.58-4.366-6.58-7.254 1.938-14.443-1.338-16.365-2.321-1.7-1.108-7.374-5.259-4.019-9.448 0 0-8.459-1.82-11.394-2.521-2.933-.699-5.432-.308-7.902.829-2.469 1.14-4.242 1.971-4.242 1.971l21.228 12.255.982.569 21.23 12.255s1.44-1.024 3.411-2.449z"></path>
        <path fill="#868DC7" d="m418.645 405.26-36.36-20.99 3.349-1.934 36.358 20.992-3.347 1.932z"></path>
        <path fill="#868DC7" d="m411.365 409.465-36.356-20.992 3.347-1.932 36.356 20.99-3.347 1.934z"></path>
        <path fill="#C3C2E5" d="m400.986 415.457-36.36-20.99 3.349-1.934 36.358 20.992-3.347 1.932z"></path>
        <path fill="#C3C2E5" d="m393.705 419.66-36.356-20.99 3.347-1.934 36.355 20.992-3.346 1.932z"></path>
        <path fill="#C3C2E5" d="m386.427 423.863-36.358-20.992 3.346-1.932 36.36 20.99-3.348 1.934z"></path>
        <path fill="#C3C2E5" d="m349.089 410.768-2.211 3.179 3.071 2.486-5.671.194-3.614 2.811-1.296-3.061-5.3-.749 4.869-2.085.337-3.274 4.307 1.773 5.508-1.274z"></path>
        <path fill="#C3C2E5" d="m360.919 417.597-2.209 3.179 3.07 2.488-5.674.193-3.609 2.813-1.297-3.061-5.299-.749 4.869-2.085.335-3.274 4.306 1.77 5.508-1.274z"></path>
        <path fill="#868DC7" d="m372.752 424.429-2.209 3.179 3.07 2.487-5.674.194-3.609 2.811-1.297-3.059-5.301-.749 4.871-2.085.335-3.274 4.306 1.77 5.508-1.274z"></path>
        <path fill="#B8B2DE" d="M4.966 382.402v-3.673h2.087c.271-.207.56-.407.886-.596l43.688-25.223-2.483-1.434c-2.604-1.503-4.016-3.413-4.194-5.258h-.017v-4.14h2.085a8.44 8.44 0 0 1 .883-.596l36.182-20.889c4.418-2.55 12.208-2.227 17.308.72l11.759 6.787 36.86 21.281 22.184 12.807c.672.391 1.261.807 1.776 1.239h2.447v4.418h-.01c0 1.628-.968 3.183-2.97 4.338l-87.904 50.749c-4.418 2.552-12.207 2.23-17.308-.716l-59.043-34.09c-2.66-1.535-4.073-3.49-4.201-5.374h-.015v-.35z"></path>
        <path fill="#DEE4F3" d="m7.94 373.541 43.69-25.223-2.481-1.432c-5.103-2.945-5.661-7.444-1.243-9.994l36.182-20.888c4.418-2.551 12.205-2.228 17.308.717l11.756 6.789 36.863 21.279 22.183 12.809c5.103 2.946 5.661 7.442 1.243 9.995l-87.903 50.751c-4.418 2.548-12.208 2.228-17.308-.72L9.184 383.536c-5.1-2.946-5.661-7.442-1.243-9.995z"></path>
        <path fill="#ffffff" d="m66.041 354.142 43.438-25.079 54.698 31.578-43.438 25.079-54.698-31.578z"></path>
        <path fill="#A5A1D7" d="m116.7 347.831 5.796.511s4.434 3.545 6.486 4.499c2.544 1.181 5.552.19 7.204 1.144 2.319 1.338.035 2.964 1.82 3.921 1.68.902 2.718.6 7.475.656 3.626.043 8.191 3.725 8.191 3.725l-15.041 8.683s-33.774-18.781-33.154-19.141c.623-.357 11.223-3.998 11.223-3.998z"></path>
        <path fill="#A5A1D7" d="m98.274 358.469.888 3.347s6.135 2.558 7.787 3.743c2.05 1.471.333 3.206 1.984 4.16 2.318 1.338 5.133.021 6.792 1.051 1.564.97 1.039 1.569 1.136 4.316.074 2.093 6.451 4.731 6.451 4.731l15.043-8.687s-32.533-19.499-33.154-19.139c-.622.358-6.927 6.478-6.927 6.478z"></path>
        <path fill="#868DC7" d="M118.005 379.149c1.032-1.61 3.293-4.76 3.293-4.76l11.222-6.478.902-.521 11.221-6.478s5.457-1.307 8.245-1.901c3.282-.701 9.462 2.687 9.462 2.687l-19.393 11.196-.903.521-19.393 11.196s-5.868-3.568-4.656-5.462z"></path>
        <path fill="#B8B2DE" d="M121.415 366.525a85.618 85.618 0 0 1-3.371-2.066l9.31-5.376a90.55 90.55 0 0 1 3.574 1.951c3.415 1.971 13.715-.122 13.715-.122s1.731 4.167-4.101 8.712c-.267.31-3.705 2.296-4.247 2.451-7.872 3.365-15.089 2.368-15.089 2.368s3.624-5.947.209-7.918z"></path>
        <path fill="#C3C2E5" d="M104.897 360.968c6.222 3.594 17.575 5.907 22.107 3.29 4.53-2.614.525-9.171-5.698-12.764-6.222-3.59-14.94-4.382-19.47-1.766-4.531 2.614-3.162 7.649 3.061 11.24z"></path>
        <path fill="#A5A1D7" d="M95.865 360.604c-2.35-1.558-4.402-3.297-4.956-5.275-.534-1.917-.207-4.422 4.796-4.414-.817-3.657 1.388-6.939 9.529-7.694 9.192-.852 19.23 5.216 21.97 9.709-7.611-2.29-15.001.732-22.332.587.612.89.865 1.858.908 2.786.052 1.142-.26 2.243-.525 3.345-.414 1.721.972 4.67 5.572 6.323-5.709-.017-12.824-3.951-14.962-5.367z"></path>
        <path fill="#868DC7" d="m24.256 382.079 36.358-20.989-3.347-1.934-36.357 20.992 3.346 1.931z"></path>
        <path fill="#868DC7" d="m31.535 386.282 36.357-20.992-3.346-1.931-36.358 20.989 3.347 1.934z"></path>
        <path fill="#C3C2E5" d="m41.915 392.275 36.358-20.99-3.346-1.932-36.358 20.992 3.346 1.93z"></path>
        <path fill="#C3C2E5" d="m49.194 396.478 36.358-20.99-3.347-1.934-36.357 20.992 3.346 1.932z"></path>
        <path fill="#C3C2E5" d="m56.475 400.68 36.355-20.991-3.346-1.93-36.358 20.99 3.349 1.931z"></path>
        <path fill="#C3C2E5" d="m93.813 387.585 2.209 3.179-3.07 2.487 5.672.194 3.613 2.811 1.295-3.061 5.301-.747-4.871-2.087-.335-3.274-4.306 1.773-5.508-1.275z"></path>
        <path fill="#868DC7" d="m81.98 394.415 2.209 3.179-3.067 2.489 5.671.192 3.611 2.813 1.295-3.061L97 399.28l-4.87-2.085-.336-3.276-4.306 1.772-5.508-1.276z"></path>
        <path fill="#868DC7" d="m70.146 401.247 2.212 3.179-3.07 2.486 5.674.194 3.609 2.811 1.297-3.059 5.301-.746-4.871-2.085-.337-3.277-4.306 1.773-5.509-1.276z"></path>
        <path fill="#C8C7FB" d="M167.857 377.972c-1.682-2.408-3.446-4.76-5.103-7.188 3.448-4.865 11.736-8.728 13.957-11.376 2.534-3.02 4.654-3.067 6.948-.513 2.296 2.559-.468 4.596-1.502 5.132-.66.339-2.289.019-4.223.602-1.316.395-4.257 3.739-8.599 11.37-.318.558-.889 1.267-1.478 1.973z"></path>
        <path fill="#4A2023" d="m205.612 349.323-18.41-10.63c-.817-.471-1.63-.502-2.294-.186l-1.363.747-.056 1.324-.018.06-6.779 38.448c-.361 2.046.729 4.52 2.418 5.494l18.411 10.629.205.091-.017.007.987.719 1.292-.719.005-.011c.618-.374 1.088-1.067 1.257-2.031l6.78-38.447c.36-2.047-.726-4.519-2.418-5.495z"></path>
        <path fill="#6D3439" d="m196.215 395.935-18.412-10.629c-1.69-.976-2.78-3.448-2.418-5.494l6.78-38.449c.36-2.045 2.037-2.92 3.727-1.946l18.413 10.632c1.69.976 2.778 3.447 2.418 5.493l-6.78 38.447c-.362 2.045-2.038 2.92-3.728 1.946z"></path>
        <path fill="#ffffff" d="m197.674 393.983-20.436-11.798 7.256-41.14 20.431 11.798-7.251 41.14z"></path>
        <path fill="#C3C2E5" d="m189.134 355.089-5.037-2.908 1.543-8.751 5.037 2.906-1.543 8.753z"></path>
        <path fill="#C3C2E5" d="m198.349 382.069-5.036-2.908 1.543-8.751 5.036 2.906-1.543 8.753z"></path>
        <path fill="#C3C2E5" d="m195.61 349.184-.211 1.194 7.75 4.474.211-1.194-7.75-4.474z"></path>
        <path fill="#C3C2E5" d="m195.194 351.53-.209 1.193 7.75 4.474.209-1.193-7.75-4.474z"></path>
        <path fill="#C3C2E5" d="m194.78 353.875-.209 1.193 7.75 4.474.211-1.193-7.752-4.474z"></path>
        <path fill="#C3C2E5" d="m194.369 356.219-.211 1.195 7.75 4.474.211-1.193-7.75-4.476z"></path>
        <path fill="#C3C2E5" d="m183.862 353.522-.211 1.191 17.72 10.23.208-1.193-17.717-10.228z"></path>
        <path fill="#C3C2E5" d="m183.45 355.865-.211 1.193 17.718 10.231.209-1.194-17.716-10.23z"></path>
        <path fill="#C3C2E5" d="m183.034 358.208-.209 1.196 17.717 10.23.211-1.193-17.719-10.233z"></path>
        <path fill="#C3C2E5" d="m182.621 360.554-.209 1.194 17.717 10.23.211-1.194-17.719-10.23z"></path>
        <path fill="#C3C2E5" d="m180.395 373.177-.209 1.193 17.718 10.231.211-1.194-17.72-10.23z"></path>
        <path fill="#C3C2E5" d="m179.983 375.521-.211 1.195 17.718 10.228.209-1.193-17.716-10.23z"></path>
        <path fill="#C3C2E5" d="m179.569 377.866-.211 1.194 17.72 10.23.209-1.193-17.718-10.231z"></path>
        <path fill="#C3C2E5" d="m179.155 380.212-.211 1.193 17.718 10.23.211-1.195-17.718-10.228z"></path>
        <path fill="#C3C2E5" d="m193.74 370.052-11.612-6.703-.211 1.193 11.614 6.704.209-1.194z"></path>
        <path fill="#C3C2E5" d="m193.326 372.397-11.61-6.703-.213 1.193 11.614 6.704.209-1.194z"></path>
        <path fill="#C3C2E5" d="m192.915 374.743-11.612-6.706-.211 1.194 11.609 6.706.214-1.194z"></path>
        <path fill="#C3C2E5" d="m192.501 377.087-11.614-6.704-.209 1.194 11.612 6.703.211-1.193z"></path>
        <path fill="#C3C2E5" d="m194.796 339.397 2.137-1.264 1.156.693-1.415 2.126-1.878-1.555z"></path>
        <path fill="#C3C2E5" d="M200.994 343.529c-.859-.496-1.684-1.681-1.624-2.029.06-.345.61-.899.312-1.779-.293-.879-1.268-1.387-1.268-1.387s-.957-.608-1.481-.201c-.521.407-.252 1.435-.312 1.783-.06.345-1.115.445-1.973-.052l-1.706-.984-2.141 1.261 1.251 3.785 7.597 4.387 1.105-1.795 1.446.834.5-2.838-1.706-.985z"></path>
        <path fill="#B0B5DD" d="M198.855 344.791c-.858-.494-1.686-1.679-1.624-2.027.06-.345.611-.902.315-1.781-.296-.881-1.27-1.388-1.27-1.388s-.958-.608-1.479-.198c-.523.405-.254 1.433-.314 1.779-.062.347-1.115.446-1.974-.048l-1.708-.987-.887 5.047 9.758 5.635.89-5.045-1.707-.987z"></path>
        <path fill="#959BD1" d="m201.81 347.128.389.224.5-2.838-2.138 1.264-.89 5.045.356-.209.47-2.764 1.313-.722z"></path>
        <path fill="#959BD1" d="m197.829 347.118-5.371-3.101c-.24-.138-.393-.49-.344-.782.054-.291.292-.415.532-.277l5.371 3.101c.24.14.393.492.344.782-.054.291-.292.415-.532.277z"></path>
        <path fill="#263D58" d="M169.077 400.732s9.798 6.753 16.541 11.351c6.74 4.598 8.921 5.599 8.921 5.599l-8.921 5.283s-18.508-3.411-20.432-9.818c-1.927-6.408 3.891-12.415 3.891-12.415z"></path>
        <path fill="#263D58" d="M194.538 410.861c-3.998.064-12.493.455-18.336.988-2.66.242-8.457.377-8.457.377s-8.919 3.477-5.976 7.483c2.943 4.004 9.976 9.21 16.038 8.549 6.065-.664 21.584-8.549 21.584-8.549l7.032-4.122s-7.533-4.795-11.885-4.726z"></path>
        <path fill="#F68C19" d="M143.406 363.483c-4.381 4.116-6.623 14.991.501 21.209 7.119 6.219 9.752-20.14 9.752-20.14-2.699-1.291-4.977-6.025-10.253-1.069z"></path>
        <path fill="#C8C7FB" d="M163.211 333.87c-3.359-2.333-9.823-1.605-12.626 4.319-1.551 3.28.644 12.096.991 18.29.277 4.996-1.394 7.877-1.394 7.877l4.282 1.766c4.283 1.767 8.747 0 8.747 0l-.137-7.616s3.167-.132 3.973-.87c1.945-1.781 4.214-4.834 3.314-11.668-1.34-10.17-5.911-11.237-7.15-12.098z"></path>
        <path fill="#263D58" d="M192.844 413.146s-7.227-.035-10.641.809c-4.081 1.005-10.954 1.346-10.954 1.346l2.444 5.26s.964 1.698 7.995 0c7.034-1.696 11.156-7.415 11.156-7.415z"></path>
        <path fill="#263D58" d="M192.844 413.146c-10.412 2.886-32.544 7.891-32.544 7.891s-15.88-8.1-18.211-1.152c-4.247 12.652 1.712 18.032 7.946 21.49 3.461 1.92 6.625 5.992 18.862 4.131 12.215-1.855 30.922-10.443 34.616-14.828 4.308-5.107 8.037-11.92 2.91-15.091a23.285 23.285 0 0 0-2.761-1.473c-2.997-1.336-6.681-2.116-10.818-.968z"></path>
        <path fill="#F7AA20" d="M174.771 388.529c2.527-5.399.765-14.706-.844-18.227-1.607-3.518-10.721-6.149-10.721-6.149l-13.171-1.555s-7.899 2.554-7.899 14.385c0 7.146 1.181 12.717 2.304 21.689.315 2.497 1.21 8.392-3.007 19.199-.23.589-.433 1.412-.617 2.385 2.143 5.979 13.947 11.979 19.484 11.888 3.697-.059 8.245-.841 11.496-3.152 3.25-2.31 4.54-3.613 3.055-9.785-.463-1.932-5.245-19.65-.08-30.678z"></path>
        <path fill="#F68C19" d="M163.136 361.991s-3.909 1.572-8.304 0l-4.395-1.576-1.458 3.119s.657 2.143 5.011 3.529c4.352 1.386 8.284 1.121 12.57-.993.026-2.817-3.424-4.079-3.424-4.079z"></path>
        <path fill="#263D58" d="M157.087 329.113c-6.017 0-11.341 4.364-11.339 17.461 0 2.677 2.474 7.219 4.78 9.583 1.146 1.177 2.503 2.43 2.786 4.089 4.666-.546 9.07-7.897 11.624-10.567 2.557-2.67 5.622-4.596 7.351-7.579.244-2.602.031-7.975-4.602-8.192-1.874-2.28-3.504-4.795-10.6-4.795z"></path>
        <path fill="#C8C7FB" d="M163.862 347.476c-1.069 4.259 2.644 5.688 2.644 5.688l1.181-5.688s-2.675-4.581-3.825 0z"></path>
        <path fill="#C8C7FB" d="M171.484 373.194s3.734-.536 6.34 2.317c2.362 2.585 11.684 13.7 13.407 15.756.104 2.631-2.014 6.555-3.828 8.913-5.235-.544-11.918-8.656-14.618-12.57-3.22-4.672-8.527-8.519-1.301-14.416z"></path>
        <path fill="#F68C19" d="M175.516 394.467c-3.922-4.815-8.284-9.666-9.628-15.519-1.591-6.944.86-9.366.86-9.366 4.091-2.966 9.327-2.331 14.005 4.927 1.578 2.449 3.647 5.599 5.562 8.731-1.38 5.225-5.866 9.256-10.799 11.227z"></path>
        <path fill="#263D58" d="M141.253 373.49c1.874-5.126 9.045-9.312 9.287-14.717.024-.548-.137-1.098-.385-1.673 1.878.848 3.868 1.473 5.897 1.946-1.874 2.29-1.545 13.627-5.512 21.795-4.41 9.08-1.843 10.738-1.843 10.738s-12.572-4.058-7.444-18.089z"></path>
        <path fill="#F7AA20" d="M149.379 354.878s-.117 4.131.532 4.826c.875.939 4.149 1.998 5.345 1.53 1.028-.399 2.54-2.479 2.674-3.512-4.226-.347-8.551-2.844-8.551-2.844z"></path>
        <path fill="#C8C7FB" d="M187.402 390.957s7.707-8.052 8.766-10.023c1.061-1.972.976-3.537 1.254-5.821.275-2.281-1.672-5.464-.76-6.062 2.365-1.545 2.557 2.999 3.434 4.182.877 1.185 2.898.772 2.898.772s1.762-5.095 2.796-6.493c2.31 2.122 1.878 3.661.695 7.097-.912 2.664-3.245 6.083-4.699 7.899-1.454 1.82-3.119 7.148-5.663 11.334-2.547 4.187-2.805 6.4-6.454 6.505-3.646.108-4.494-1.106-4.616-3.166-.122-2.063 2.349-6.224 2.349-6.224z"></path>
        <path fill="#C8C7FB" d="m176.624 361.576.087-2.168s3.475-2.827 5.206-3.76c1.733-.935 2.753-.737 2.18 1.061-.447 1.404-2.093 2.143-3.005 2.523-.912.381-2.137 4.917-3.361 4.689-1.225-.229-1.107-2.345-1.107-2.345z"></path>
    </g>
</svg>